<svg xmlns="http://www.w3.org/2000/svg" viewBox="0 0 32 32" fill="none" x="0px" y="0px">
  <path d="M16 2C12.134 2 9 5.13401 9 9V13C9 15.3787 10.1865 17.4804 12 18.7453V21H8.01722C5.78481 21 3.82288 22.4799 3.20959 24.6264L2.03848 28.7253C1.95228 29.027 2.0127 29.3517 2.20166 29.6022C2.39062 29.8527 2.68622 30 3.00001 30H29C29.3138 30 29.6094 29.8527 29.7984 29.6022C29.9873 29.3517 30.0477 29.027 29.9615 28.7253L28.7904 24.6264C28.1771 22.4799 26.2152 21 23.9828 21H20V18.7453C21.8135 17.4804 23 15.3787 23 13V9C23 5.13401 19.866 2 16 2Z" fill="white"/>
</svg>