<svg xmlns="http://www.w3.org/2000/svg" viewBox="0 0 32 32" fill="none" x="0px" y="0px">
  <path fill-rule="evenodd" clip-rule="evenodd" d="M5 5C5 3.34315 6.34315 2 8 2H24C25.6569 2 27 3.34315 27 5V27C27 28.6569 25.6569 30 24 30H8C6.34315 30 5 28.6569 5 27V5ZM10 6C9.44772 6 9 6.44772 9 7C9 7.55228 9.44772 8 10 8H12C12.5523 8 13 7.55228 13 7C13 6.44772 12.5523 6 12 6H10ZM19 20C18.4477 20 18 20.4477 18 21C18 21.5523 18.4477 22 19 22H22C22.5523 22 23 21.5523 23 21C23 20.4477 22.5523 20 22 20H19ZM21 23C20.4477 23 20 23.4477 20 24C20 24.5523 20.4477 25 21 25H22C22.5523 25 23 24.5523 23 24C23 23.4477 22.5523 23 22 23H21ZM15 6C14.4477 6 14 6.44772 14 7C14 7.55228 14.4477 8 15 8H22C22.5523 8 23 7.55228 23 7C23 6.44772 22.5523 6 22 6H15ZM10 9C9.44772 9 9 9.44772 9 10C9 10.5523 9.44772 11 10 11H22C22.5523 11 23 10.5523 23 10C23 9.44772 22.5523 9 22 9H10ZM10 12C9.44772 12 9 12.4477 9 13C9 13.5523 9.44772 14 10 14H22C22.5523 14 23 13.5523 23 13C23 12.4477 22.5523 12 22 12H10ZM13 15C10.7909 15 9 16.7909 9 19C9 21.2091 10.7909 23 13 23C15.2091 23 17 21.2091 17 19C17 16.7909 15.2091 15 13 15ZM13 24C11.8744 24 10.8357 23.6281 10 23.0004V26C10 26.3466 10.1795 26.6684 10.4743 26.8507C10.7691 27.0329 11.1372 27.0494 11.4472 26.8944L13 26.118L14.5528 26.8944C14.8628 27.0494 15.2309 27.0329 15.5257 26.8507C15.8205 26.6684 16 26.3466 16 26V23.0004C15.1643 23.6281 14.1256 24 13 24Z" fill="white"/>
</svg>